<mxfile host="app.diagrams.net" modified="2023-12-10T02:57:40.575Z" agent="Mozilla/5.0 (Windows NT 10.0; Win64; x64) AppleWebKit/537.36 (KHTML, like Gecko) Chrome/119.0.0.0 Safari/537.36" etag="yEiuqVwQ-pN_Z1fnbML2" version="22.1.7" type="google">
  <diagram name="ページ1" id="KM3orFN-zY9d4pWXzQDk">
    <mxGraphModel grid="1" page="1" gridSize="10" guides="1" tooltips="1" connect="1" arrows="1" fold="1" pageScale="1" pageWidth="827" pageHeight="1169" math="0" shadow="0">
      <root>
        <mxCell id="0" />
        <mxCell id="1" parent="0" />
        <mxCell id="PVyk-2wv4b4ZhPbKB6Ro-1" style="edgeStyle=orthogonalEdgeStyle;rounded=0;orthogonalLoop=1;jettySize=auto;html=1;" edge="1" parent="1" source="PVyk-2wv4b4ZhPbKB6Ro-2" target="PVyk-2wv4b4ZhPbKB6Ro-4">
          <mxGeometry relative="1" as="geometry" />
        </mxCell>
        <mxCell id="PVyk-2wv4b4ZhPbKB6Ro-2" value="呼び出し" style="rounded=1;whiteSpace=wrap;html=1;arcSize=50;" vertex="1" parent="1">
          <mxGeometry x="420" y="60" width="120" height="60" as="geometry" />
        </mxCell>
        <mxCell id="PVyk-2wv4b4ZhPbKB6Ro-3" style="edgeStyle=orthogonalEdgeStyle;rounded=0;orthogonalLoop=1;jettySize=auto;html=1;" edge="1" parent="1" source="PVyk-2wv4b4ZhPbKB6Ro-4" target="PVyk-2wv4b4ZhPbKB6Ro-6">
          <mxGeometry relative="1" as="geometry" />
        </mxCell>
        <mxCell id="PVyk-2wv4b4ZhPbKB6Ro-4" value="詳細表示内容・スタイル&lt;br&gt;受け取り" style="rounded=1;whiteSpace=wrap;html=1;arcSize=50;" vertex="1" parent="1">
          <mxGeometry x="400" y="180" width="160" height="60" as="geometry" />
        </mxCell>
        <mxCell id="PVyk-2wv4b4ZhPbKB6Ro-5" style="edgeStyle=orthogonalEdgeStyle;rounded=0;orthogonalLoop=1;jettySize=auto;html=1;" edge="1" parent="1" source="PVyk-2wv4b4ZhPbKB6Ro-6" target="PVyk-2wv4b4ZhPbKB6Ro-7">
          <mxGeometry relative="1" as="geometry" />
        </mxCell>
        <mxCell id="PVyk-2wv4b4ZhPbKB6Ro-6" value="詳細表示生成" style="rounded=1;whiteSpace=wrap;html=1;arcSize=50;" vertex="1" parent="1">
          <mxGeometry x="420" y="300" width="120" height="60" as="geometry" />
        </mxCell>
        <mxCell id="PVyk-2wv4b4ZhPbKB6Ro-7" value="処理終了" style="rounded=1;whiteSpace=wrap;html=1;arcSize=50;" vertex="1" parent="1">
          <mxGeometry x="420" y="420" width="120" height="60" as="geometry" />
        </mxCell>
      </root>
    </mxGraphModel>
  </diagram>
</mxfile>
